<svg xmlns="http://www.w3.org/2000/svg" width="86" height="78" viewBox="0 0 86 78">
    <defs>
        <style>
            .cls-2{fill:#a4c5ff}.cls-3{fill:#fff}
        </style>
    </defs>
    <g id="Logo" transform="translate(-188.85 -15.75)">
        <path id="Path_8611" fill="#2069ff" d="M-1724.267 98.991h21.735s6.424.619 6.429-8.351q.008-15.733 0-31.467a53.824 53.824 0 0 0 0-6.128c-.469-3.995-4.489-6.595-7.4-8.86-3.2-2.492-6.166-5.292-9.2-7.993-4.633-4.128-9.538-8.086-13.959-12.439 0 0-6.29-6.192-12.811 0l-28.35 25.7a6.482 6.482 0 0 0-2.495 4.644v35.915s-.624 8.979 8.419 8.979h37.632z" transform="translate(1959.177 -5.25)"/>
        <path id="Path_8612" d="M-1667.679 61.091a1.385 1.385 0 0 1-.963-.561 1.365 1.365 0 0 1-.215-1.089 6.823 6.823 0 0 0-1.073-5.463 6.913 6.913 0 0 0-4.832-2.818 1.348 1.348 0 0 1-1.178-1.65 1.669 1.669 0 0 1 1.811-1.274 9.673 9.673 0 0 1 6.761 3.94 9.545 9.545 0 0 1 1.5 7.641 1.674 1.674 0 0 1-1.811 1.274z" class="cls-2" transform="translate(1935.241 -12.3)"/>
        <path id="Path_8613" d="M-1662.229 60.1a1.349 1.349 0 0 1-1.178-1.65 11.62 11.62 0 0 0-1.828-9.3 11.791 11.791 0 0 0-8.235-4.8 1.376 1.376 0 0 1-.964-.56 1.355 1.355 0 0 1-.213-1.089 1.668 1.668 0 0 1 1.811-1.274 14.547 14.547 0 0 1 10.163 5.921 14.345 14.345 0 0 1 2.255 11.483 1.671 1.671 0 0 1-1.811 1.269z" class="cls-2" transform="translate(1934.913 -10.534)"/>
        <path id="Path_623" d="M-1744.691 69.987V73.8h-3.51v9.258h-4.279V73.8h-3.4v-3.813z" class="cls-3" transform="translate(1955.512 -17.935)"/>
        <path id="Path_624" d="M-1731.152 79.027a1.685 1.685 0 0 0 .549-1.524v-7.516h4.278V77.5a5.572 5.572 0 0 1-1.755 4.248 7.008 7.008 0 0 1-9 0 5.5 5.5 0 0 1-1.755-4.139V70.1h4.278v7.515a2.591 2.591 0 0 0 .549 1.525 1.9 1.9 0 0 0 2.632.218c.11-.218.219-.218.219-.327z" class="cls-3" transform="translate(1951.187 -17.935)"/>
        <path id="Path_625" d="M-1698.5 74.453l3.729-4.466h4.717l-4.5 5.446 4.936 7.624h-4.717l-2.961-4.574-1.1 1.416v3.158h-4.278v-13.07h4.278v4.466z" class="cls-3" transform="translate(1942.014 -17.935)"/>
        <path id="Path_626" d="M-1710.472 75.782a5.93 5.93 0 0 0-1.426-.763 5.458 5.458 0 0 0-1.426-.436 4.6 4.6 0 0 1-1.1-.436.556.556 0 0 1-.439-.545.938.938 0 0 1 .329-.654 1.188 1.188 0 0 1 .878-.218 3.222 3.222 0 0 1 .987.218 2.294 2.294 0 0 1 .658.436l.219.218 1.206-1.307 1.207-1.2-.22-.218a1.925 1.925 0 0 0-.548-.436c-.329-.218-.658-.327-.988-.545a5.444 5.444 0 0 0-1.425-.436 9.668 9.668 0 0 0-1.755-.218 5.408 5.408 0 0 0-3.839 1.2 3.656 3.656 0 0 0-1.426 2.94 3.676 3.676 0 0 0 .11 1.089 6.488 6.488 0 0 0 .988 1.634 3.937 3.937 0 0 0 1.1.763 4.6 4.6 0 0 0 1.1.436 2.215 2.215 0 0 0 .987.217 7.151 7.151 0 0 0 2.633-.109 6.219 6.219 0 0 0 2.523-1.306l.109-.109c-.003.111-.222.003-.442-.215z" class="cls-3" transform="translate(1946.303 -17.739)"/>
        <path id="Path_627" d="M-1709.377 79.574c-.11-.109-.11-.218-.219-.327a5.115 5.115 0 0 1-5.046 3.267 6.7 6.7 0 0 1-3.4-1.416l-1.975 2.4.219.218a2.908 2.908 0 0 0 .658.545c.329.218.768.436 1.1.654a8.628 8.628 0 0 0 1.535.544 12.17 12.17 0 0 0 1.975.218 5.286 5.286 0 0 0 3.949-1.306 3.427 3.427 0 0 0 1.426-3.05 2.441 2.441 0 0 0-.222-1.747z" class="cls-3" transform="translate(1946.414 -20.333)"/>
        <path id="Path_8614" d="M-1755.755 99.988a2.324 2.324 0 0 0 1.961 1.181c.77 0 1.292-.4 1.292-1.035 0-.528-.317-.754-1.1-1.114l-.828-.382c-1.088-.5-1.745-1.069-1.745-2.059a2.145 2.145 0 0 1 2.357-2.014 2.754 2.754 0 0 1 2.414 1.328l-.839.641a1.869 1.869 0 0 0-1.575-.9c-.634 0-1.133.316-1.133.9.045.585.306.687 1.043 1.058l.838.382c1.213.551 1.791 1.137 1.791 2.116a2.247 2.247 0 0 1-2.5 2.149 3.178 3.178 0 0 1-2.822-1.609z" class="cls-3" transform="translate(1955.696 -24.3)"/>
        <path id="Path_8615" d="M-1734.222 94.564v7.551h-1.2v-4.659l-2.142 2.791h-.408l-2.153-2.8v4.67h-1.2v-7.553h.42l3.139 4.152 3.139-4.152z" class="cls-3" transform="translate(1951.821 -24.3)"/>
        <path id="Path_8616" d="M-1718.959 100.877h-3.366l-.533 1.238h-1.281l3.3-7.551h.408l3.3 7.551h-1.293zm-1.678-4.1l-1.257 3.072h2.5z" class="cls-3" transform="translate(1947.46 -24.3)"/>
        <path id="Path_8617" d="M-1702.382 102.158l-2.131-2.869h-1.371v2.869h-1.2v-7.427h2.731a2.3 2.3 0 0 1 2.538 2.269 2.17 2.17 0 0 1-1.439 2.093l2.244 3.061zm-3.5-3.928h1.508a1.192 1.192 0 0 0 1.325-1.215 1.194 1.194 0 0 0-1.325-1.226h-1.508z" class="cls-3" transform="translate(1943.134 -24.343)"/>
        <path id="Path_8618" d="M-1690.309 95.8h-2.516v-1.069h6.244V95.8h-2.528v6.358h-1.2z" class="cls-3" transform="translate(1939.516 -24.343)"/>
    </g>
</svg>
