<svg xmlns="http://www.w3.org/2000/svg" width="24" height="24" viewBox="0 0 24 24">
    <path fill="#feb42b" d="M25.339 11.683h-7.88l-2.395-7.7a.848.848 0 0 0-1.629 0l-2.395 7.7H3.107a.9.9 0 0 0-.857.923.728.728 0 0 0 .016.156.9.9 0 0 0 .359.652L9.1 18.329l-2.484 7.783a.968.968 0 0 0 .295 1.038.8.8 0 0 0 .482.225 1 1 0 0 0 .536-.208l6.321-4.852 6.321 4.852a.96.96 0 0 0 .536.208.744.744 0 0 0 .477-.225.956.956 0 0 0 .295-1.038l-2.486-7.783 6.423-4.962.155-.144a1 1 0 0 0 .279-.617.939.939 0 0 0-.911-.923z" transform="translate(-2.25 -3.375)"/>
</svg>
